<svg width="27" height="26" viewBox="0 0 27 26" fill="none" xmlns="http://www.w3.org/2000/svg">
<path fill-rule="evenodd" clip-rule="evenodd" d="M2.99896 6.49987C2.99896 5.35062 3.4555 4.24845 4.26814 3.4358C5.08078 2.62316 6.18296 2.16663 7.33221 2.16663H20.3319C21.4812 2.16663 22.5834 2.62316 23.396 3.4358C24.2087 4.24845 24.6652 5.35062 24.6652 6.49987V19.4996C24.6652 20.6489 24.2087 21.751 23.396 22.5637C22.5834 23.3763 21.4812 23.8329 20.3319 23.8329H7.33221C6.18296 23.8329 5.08078 23.3763 4.26814 22.5637C3.4555 21.751 2.99896 20.6489 2.99896 19.4996V6.49987ZM7.33221 4.33325C6.75758 4.33325 6.20649 4.56152 5.80017 4.96784C5.39385 5.37416 5.16559 5.92525 5.16559 6.49987V19.4996C5.16559 20.0742 5.39385 20.6253 5.80017 21.0316C6.20649 21.438 6.75758 21.6662 7.33221 21.6662H13.8321V14.0831H12.7488C12.4615 14.0831 12.1859 13.9689 11.9827 13.7658C11.7796 13.5626 11.6655 13.2871 11.6655 12.9997C11.6655 12.7124 11.7796 12.4369 11.9827 12.2337C12.1859 12.0306 12.4615 11.9164 12.7488 11.9164H13.8321V10.2915C13.8321 9.28587 14.2315 8.32146 14.9426 7.6104C15.6537 6.89934 16.6181 6.49987 17.6237 6.49987H18.2737C18.561 6.49987 18.8365 6.61401 19.0397 6.81717C19.2428 7.02033 19.357 7.29587 19.357 7.58318C19.357 7.8705 19.2428 8.14604 19.0397 8.3492C18.8365 8.55236 18.561 8.66649 18.2737 8.66649H17.6237C17.4103 8.66649 17.199 8.70853 17.0018 8.79019C16.8047 8.87185 16.6255 8.99154 16.4746 9.14244C16.3237 9.29333 16.2041 9.47246 16.1224 9.66961C16.0407 9.86676 15.9987 10.0781 15.9987 10.2915V11.9164H18.2737C18.561 11.9164 18.8365 12.0306 19.0397 12.2337C19.2428 12.4369 19.357 12.7124 19.357 12.9997C19.357 13.2871 19.2428 13.5626 19.0397 13.7658C18.8365 13.9689 18.561 14.0831 18.2737 14.0831H15.9987V21.6662H20.3319C20.9066 21.6662 21.4577 21.438 21.864 21.0316C22.2703 20.6253 22.4986 20.0742 22.4986 19.4996V6.49987C22.4986 5.92525 22.2703 5.37416 21.864 4.96784C21.4577 4.56152 20.9066 4.33325 20.3319 4.33325H7.33221Z" fill="#172853"/>
</svg>
