<svg width="26" height="26" viewBox="0 0 26 26" fill="none" xmlns="http://www.w3.org/2000/svg">
<path fill-rule="evenodd" clip-rule="evenodd" d="M3.79162 12.9998C3.79162 11.1786 4.33166 9.39827 5.34347 7.884C6.35527 6.36973 7.79339 5.18949 9.47596 4.49255C11.1585 3.79561 13.01 3.61326 14.7962 3.96855C16.5824 4.32385 18.2231 5.20084 19.5109 6.48863C20.7987 7.77641 21.6757 9.41714 22.031 11.2033C22.3863 12.9896 22.2039 14.841 21.507 16.5236C20.81 18.2061 19.6298 19.6443 18.1155 20.6561C16.6013 21.6679 14.821 22.2079 12.9998 22.2079C11.2576 22.211 9.55075 21.7172 8.07936 20.7844C7.94848 20.7017 7.80137 20.6479 7.64794 20.6268C7.49452 20.6056 7.33835 20.6177 7.18996 20.662L4.07003 21.5926L5.24542 18.8442C5.31374 18.6842 5.34252 18.5101 5.32932 18.3366C5.31612 18.1632 5.26133 17.9954 5.16959 17.8476C4.26603 16.3923 3.78864 14.7128 3.79162 12.9998ZM12.9998 1.625C6.71764 1.625 1.62499 6.71765 1.62499 12.9998C1.62499 14.9909 2.1374 16.865 3.03871 18.4954L1.17 22.8655C1.08912 23.0548 1.06385 23.2632 1.09716 23.4664C1.13046 23.6695 1.22095 23.859 1.35804 24.0125C1.49513 24.1661 1.67314 24.2774 1.87121 24.3335C2.06929 24.3895 2.27924 24.388 2.47648 24.329L7.35138 22.8752C9.07062 23.8605 11.0182 24.3774 12.9998 24.3745C19.2819 24.3745 24.3745 19.2819 24.3745 12.9998C24.3745 6.71765 19.2819 1.625 12.9998 1.625ZM15.4838 15.3636L14.0592 16.3667C13.2744 15.9151 12.5536 15.3602 11.9165 14.7168C11.2324 14.0337 10.6409 13.2637 10.1572 12.4267L11.0617 11.6586C11.2502 11.4987 11.3783 11.2792 11.4248 11.0364C11.4713 10.7936 11.4334 10.5422 11.3174 10.324L10.1647 8.15737C10.088 8.01348 9.97984 7.88876 9.84821 7.79251C9.71659 7.69626 9.56494 7.63097 9.40457 7.6015C9.24419 7.57203 9.07924 7.57914 8.922 7.6223C8.76476 7.66547 8.61929 7.74357 8.49644 7.85079L8.15411 8.1487C7.33188 8.86585 6.84547 10.0445 7.24846 11.2383C7.89683 13.1266 8.96974 14.8411 10.3846 16.2497C12.3487 18.2137 14.3442 18.9872 15.512 19.2884C16.4523 19.53 17.3417 19.2061 17.9689 18.6947L18.6091 18.1726C18.7441 18.0625 18.8506 17.9215 18.9195 17.7616C18.9884 17.6016 19.0177 17.4274 19.0049 17.2537C18.9922 17.08 18.9377 16.9119 18.8462 16.7637C18.7547 16.6155 18.6288 16.4916 18.4792 16.4024L16.6614 15.3191C16.4816 15.2119 16.2746 15.159 16.0655 15.1669C15.8563 15.1748 15.6539 15.2431 15.4827 15.3636H15.4838Z" fill="#4376FB"/>
</svg>
