<svg width="27" height="26" viewBox="0 0 27 26" fill="none" xmlns="http://www.w3.org/2000/svg">
<path fill-rule="evenodd" clip-rule="evenodd" d="M9.16316 5.17337C11.9711 4.77579 15.3575 4.77579 18.1655 5.17337C20.7167 5.53519 22.6937 7.32483 23.0707 9.25312C23.529 11.5877 23.529 14.4129 23.0707 16.7475C22.6926 18.6758 20.7167 20.4654 18.1655 20.8272C15.3575 21.2248 11.97 21.2248 9.16316 20.8272C6.61197 20.4654 4.63601 18.6758 4.25793 16.7475C3.79969 14.4129 3.79969 11.5877 4.25793 9.25312C4.63601 7.32483 6.61197 5.53519 9.16316 5.17337ZM18.4688 3.02841C15.4605 2.60267 11.8682 2.60267 8.85984 3.02841C5.59365 3.49099 2.72288 5.82119 2.13247 8.83713C1.62007 11.4468 1.62007 14.5538 2.13247 17.1635C2.72288 20.1794 5.59365 22.5096 8.85984 22.9722C11.8682 23.3979 15.4605 23.3979 18.4688 22.9722C21.735 22.5096 24.6058 20.1794 25.1962 17.1635C25.7086 14.5538 25.7086 11.4468 25.1962 8.83713C24.6058 5.82119 21.735 3.49099 18.4688 3.02841ZM12.0989 7.76573C11.9358 7.65688 11.7462 7.59437 11.5503 7.58485C11.3544 7.57534 11.1596 7.61918 10.9866 7.7117C10.8137 7.80423 10.6691 7.94197 10.5684 8.11022C10.4676 8.27847 10.4144 8.47092 10.4144 8.66705V17.3335C10.4144 17.5297 10.4676 17.7221 10.5684 17.8904C10.6691 18.0586 10.8137 18.1964 10.9866 18.2889C11.1596 18.3814 11.3544 18.4253 11.5503 18.4157C11.7462 18.4062 11.9358 18.3437 12.0989 18.2349L18.5988 13.9016C18.7472 13.8027 18.8688 13.6686 18.953 13.5114C19.0371 13.3542 19.0811 13.1786 19.0811 13.0003C19.0811 12.822 19.0371 12.6464 18.953 12.4892C18.8688 12.3319 18.7472 12.1979 18.5988 12.099L12.0989 7.76573ZM16.0444 13.0003L12.581 15.3099V10.6918L16.0444 13.0003Z" fill="#172853"/>
</svg>
